<?xml version="1.0" encoding="UTF-8"?>
<svg id="Layer_1" xmlns="http://www.w3.org/2000/svg" version="1.1" viewBox="0 0 2342.8 720">
  <!-- Generator: Adobe Illustrator 30.2.1, SVG Export Plug-In . SVG Version: 2.1.1 Build 1)  -->
  <defs>
    <style>
      .st0 {
        fill: #dd83c4;
      }

      .st1 {
        fill: #efc1f7;
      }

      .st2 {
        fill: #000f35;
      }

      .st3 {
        fill: #9d4ddb;
      }
    </style>
  </defs>
  <g>
    <path class="st2" d="M728.9,108.9h49.8l7.3,98.2,7.8,98.2,7.3-98.2,7.8-98.2h48.9v223.2h-29.8l2.5-206.6-17.5,206.6h-38.8l-9.4-111.6-8.6-95.7,2.5,207.3h-29.8V108.9h0Z"/>
    <path class="st2" d="M904.2,108.9h48.1l30.2,223.2h-34.3l-5.7-51h-29.4l-5.7,51h-33l29.8-223.2h0ZM916.1,255.3h23.2l-1.6-15.6-10.2-101.4-9.8,101.4-1.6,15.6h0Z"/>
    <path class="st2" d="M993.6,253.4h32.2c0,41.4,5.7,54.8,16.3,54.8s12.6-5.7,12.6-21.7c0-53.6-61.2-65.1-61.2-128.5s18-51.3,45.7-51.3,49.3,24.6,47.7,82.3h-31.4c0-40.8-6.5-56.1-16.3-56.1s-11.4,7.3-11.4,23.3c0,50.4,61.2,61.9,61.2,127.9s-20,50.4-46.1,50.4-51.4-23.9-49.3-81h0Z"/>
    <path class="st2" d="M1107,253.4h32.2c0,41.4,5.7,54.8,16.3,54.8s12.6-5.7,12.6-21.7c0-53.6-61.2-65.1-61.2-128.5s17.9-51.3,45.7-51.3,49.3,24.6,47.7,82.3h-31.4c0-40.8-6.5-56.1-16.3-56.1s-11.4,7.3-11.4,23.3c0,50.4,61.2,61.9,61.2,127.9s-20,50.4-46.1,50.4-51.4-23.9-49.3-81h0Z"/>
    <path class="st2" d="M1244.4,108.9h48.1l30.2,223.2h-34.3l-5.7-51h-29.4l-5.7,51h-33l29.8-223.2h0ZM1256.2,255.3h23.2l-1.6-15.6-10.2-101.4-9.8,101.4-1.6,15.6h0Z"/>
    <path class="st2" d="M1399.4,200.1c-.4-52.3-7.3-66.3-15.5-66.3s-15.9,17.9-15.9,86.7,6.9,86.7,15.9,86.7,15.1-13.7,15.5-69.5h32.6c0,74.9-17.5,96.6-48.9,96.6s-51-25.5-51-113.8,16.7-113.8,51-113.8,48.1,21.4,48.9,93.4h-32.6Z"/>
    <path class="st2" d="M1452,108.9h36.3v94.1h28.6v-94.1h36.3v223.2h-36.3v-101.7h-28.6v101.7h-36.3V108.9Z"/>
    <path class="st2" d="M1575.6,293.6V108.9h36.7v183.7c0,10.2,5.3,15.3,13.1,15.3s13.5-5.1,13.5-15.3V108.9h35.9v184.6c0,25.8-20.4,40.8-49.8,40.8s-49.3-15-49.3-40.8h0Z"/>
    <path class="st2" d="M1694.3,253.4h32.2c0,41.4,5.7,54.8,16.3,54.8s12.6-5.7,12.6-21.7c0-53.6-61.2-65.1-61.2-128.5s17.9-51.3,45.7-51.3,49.3,24.6,47.7,82.3h-31.4c0-40.8-6.5-56.1-16.3-56.1s-11.4,7.3-11.4,23.3c0,50.4,61.2,61.9,61.2,127.9s-20,50.4-46.1,50.4-51.4-23.9-49.3-81h0Z"/>
    <path class="st2" d="M1808.5,108.9h83.6v27.1h-47.3v67.6h34.3v27.1h-34.3v74.9h47.3v26.5h-83.6V108.9Z"/>
    <path class="st2" d="M1937.4,136.1h-30.6v-27.1h97.5v27.1h-30.2v196.1h-36.7v-196.1h0Z"/>
    <path class="st2" d="M2049.6,136.1h-30.6v-27.1h97.5v27.1h-30.2v196.1h-36.7v-196.1h0Z"/>
    <path class="st2" d="M2128.3,253.4h32.2c0,41.4,5.7,54.8,16.3,54.8s12.6-5.7,12.6-21.7c0-53.6-61.2-65.1-61.2-128.5s17.9-51.3,45.7-51.3,49.4,24.6,47.7,82.3h-31.4c0-40.8-6.5-56.1-16.3-56.1s-11.4,7.3-11.4,23.3c0,50.4,61.2,61.9,61.2,127.9s-20,50.4-46.1,50.4-51.4-23.9-49.4-81h0Z"/>
    <path class="st2" d="M728.9,380.8h37.5c36.7,0,61.6,19.8,61.6,57.4s-9.8,43-26.9,51.6c18.4,8.9,29.8,27.1,29.8,52.3,0,39.5-23.2,61.9-62.8,61.9h-39.2v-223.2h0ZM764.8,407.3v69.8h2.5c15.9,0,25.3-11.5,25.3-35.1s-9.4-34.8-25.3-34.8h-2.5ZM764.8,502.9v75.3h4.5c15.1,0,25.7-12.4,25.7-37.6s-10.6-37.6-25.7-37.6h-4.5Z"/>
    <path class="st2" d="M870,380.8h48.1l30.2,223.2h-34.3l-5.7-51h-29.4l-5.7,51h-33l29.8-223.2h0ZM881.8,527.2h23.2l-1.6-15.6-10.2-101.4-9.8,101.4-1.6,15.6Z"/>
    <path class="st2" d="M964.2,380.8h36.3v223.2h-36.3v-223.2h0Z"/>
    <path class="st2" d="M1023.8,380.8h36.3v196.7h46.5v26.5h-82.8v-223.2h0Z"/>
    <path class="st2" d="M1176.7,380.8h82.8v27.1h-46.5v67.3h33.4v27.4h-33.4v101.4h-36.3v-223.2h0Z"/>
    <path class="st2" d="M1277.5,565.4v-184.6h36.7v183.7c0,10.2,5.3,15.3,13.1,15.3s13.5-5.1,13.5-15.3v-183.7h35.9v184.6c0,25.8-20.4,40.8-49.8,40.8s-49.3-15-49.3-40.8h0Z"/>
    <path class="st2" d="M1399,380.8h46.5l15.9,96.6,14.3,96-2-96-1.6-96.6h29.4v223.2h-46.5l-15.9-96.6-13.9-96.3,1.6,96.3,1.2,96.6h-29v-223.2h0Z"/>
    <path class="st2" d="M1524.2,380.8h32.2c43.2,0,71.4,28.4,71.4,111.6s-28.1,111.6-71.4,111.6h-32.2v-223.2h0ZM1560.5,408.5v168.4c16.7-.6,31-19.8,31-84.5s-14.7-83.9-31-83.9h0Z"/>
  </g>
  <g>
    <circle class="st2" cx="372.4" cy="360" r="253.3"/>
    <g>
      <path class="st3" d="M571.7,335.6c-5.5-103.9-92.5-186.5-199.1-186.5s-193.6,82.6-199.1,186.4l196.4,47.5,201.8-47.5Z"/>
      <g>
        <path class="st2" d="M159.4,297.3c-5.5,16.6-8.3,25.4-7.5,35,1.3,16,12.2,29,33.2,44.2-11.8-4.9-23.5-9.7-35.3-14.6-.3,10.7.2,23.6,2.7,38,1.9,10.7,4.5,20.3,7.4,28.9,5,14.6,16.1,26.3,30.6,32.1,4.2,1.7,8.4,3.4,12.7,5.1-10.2-2.3-20.4-4.6-30.6-6.9,9.6,19,19.9,33.2,28,43,1.9,2.3,10.3,12.4,22.9,24.2,8.9,8.4,13.4,12.5,19.2,16.3,14.3,9.2,28.7,12.7,45.2,16.7,5.9,1.4,10.7,2.4,13.9,3,3.3-17.5,6.6-35,9.9-52.6.7.3,1.4.6,2.1.8,4.2-19.1,8.4-38.2,12.5-57.3.9.4,1.8.8,2.7,1.1,4.6-21,9.1-42,13.7-63l-160.8-142.8c-6.6,11-15.3,27.5-22.3,48.8h0Z"/>
        <path class="st2" d="M595.1,362c-11.8,4.9-23.5,9.7-35.3,14.6,21.1-15.2,31.9-28.2,33.2-44.2.8-9.6-2-18.3-7.5-35-7.1-21.3-15.8-37.8-22.3-48.8l-160.8,142.8c4.6,21,9.1,42,13.7,63,.9-.4,1.8-.8,2.7-1.1,4.2,19.1,8.4,38.2,12.5,57.3.7-.3,1.4-.6,2.1-.8,3.3,17.5,6.6,35.1,9.9,52.6,3.2-.6,8.1-1.5,13.9-3,16.5-4,30.9-7.5,45.2-16.7,5.8-3.7,10.2-7.9,19.2-16.3,12.6-11.8,21-21.9,22.9-24.2,8-9.8,18.4-24,28-43-10.2,2.3-20.4,4.6-30.6,6.9,4.2-1.7,8.4-3.4,12.7-5.1,14.4-5.8,25.6-17.5,30.5-32.1,2.9-8.6,5.6-18.2,7.4-28.9,2.5-14.4,3-27.3,2.7-38h0Z"/>
        <path class="st0" d="M531.3,491.7c-2.8,3.4-10.4,12.3-21.4,22.6-8.5,7.9-12.3,11.5-16.8,14.4-11,7.1-22.4,10.2-36.5,13.6l-4.3-23.1-2.9-15.2,87.7-19.8c-1.9,2.5-3.9,5-5.9,7.5h0Z"/>
        <path class="st0" d="M558.4,279.8c4.3,8.9,8,18,11.1,27.4,5.3,15.8,7.2,22.4,6.7,28.5-1.1,13.4-15.2,26.5-53.8,50-29.9,18.2-61.5,34.9-94.2,49.9l-5.5-25.2-1.8-8.3,137.5-122.1h0Z"/>
        <path class="st0" d="M575.7,397.2c-1.5,8.9-3.8,17.8-6.8,26.4-3.4,10-11.1,18.1-20.9,22l-104.5,42-3.9-17.8-5.2-23.6,142.7-58.9c-.4,3.3-.8,6.5-1.4,9.8h0Z"/>
        <path class="st0" d="M292.7,519.3l-4.3,23.1c-14.1-3.4-25.5-6.5-36.5-13.6-4.5-2.9-8.4-6.5-16.8-14.4-11-10.2-18.6-19.2-21.4-22.6-2-2.4-4-4.9-5.9-7.5l87.7,19.8-2.9,15.2h0Z"/>
        <path class="st0" d="M176,423.6c-2.9-8.6-5.2-17.5-6.8-26.4-.6-3.2-1-6.5-1.4-9.8l42.1,17.4,100.6,41.5-5.2,23.6-3.9,17.8-104.5-42c-9.9-4-17.5-12-20.9-22h0Z"/>
        <path class="st0" d="M324.1,401.9l-1.8,8.3-5.5,25.2c-32.7-15-64.4-31.7-94.2-49.9-38.6-23.5-52.7-36.6-53.8-50-.5-6.1,1.4-12.6,6.7-28.5,3.1-9.3,6.8-18.5,11.1-27.4l137.5,122.1h0Z"/>
      </g>
      <g>
        <path class="st2" d="M468.4,354.1l-5-61.1-5.7-1.4,14.6-45.1-40.5-30.2,4.5-21.3-44.7-7.9v-9.6l-69.6,8.3-.2,5.1h-33.9l-8.3,145.1,29.8,32.9c-15,61.6-30.7,116.2-45.7,177.7,9,2.2,21.3,4.3,30.3,6.5,26.3-.3,53.1-.3,80.6,0,25.4.3,50.2,1,74.5,1.9,9-2.3,18.1-4.6,27.1-6.9-10.5-61-21.1-121.9-31.6-182.9l12.3-5.8,11.5-5.4h0Z"/>
        <g>
          <path class="st1" d="M294,553.1c11.5-49.1,22.9-129.7,34.4-178.8l68.3-35.5-63.8,22.9-35.2-34.8,4.5-63.6,81.5-22.1,2.2,31.1-42.3,7.1,2.2,19.9,12.8-12.6,87.6,20.8,2.9,35.5-24.3,11.5c4,32.2,8.2,66.9,12.2,99.1,4.1,33.4,8.3,68.1,12.4,101.4-18.6,5.2-45.1,10.4-77.1,10.1-32.6-.3-59.4-6.4-78-12.1h0Z"/>
          <g>
            <polygon class="st1" points="340.6 245.6 344 201.6 369.6 198.7 366.1 238.7 340.6 245.6"/>
            <polygon class="st1" points="414.5 226.5 450.7 253.3 436.3 298 399.4 289.2 414.5 226.5"/>
            <polygon class="st1" points="390.8 240.8 390.2 232.1 381.7 234.4 373.5 236.6 376.5 203.3 411.3 209.1 393.8 281.5 390.8 240.8"/>
            <polygon class="st1" points="302.6 255.7 305.4 209.2 336.1 209.2 333.2 247.6 302.6 255.7"/>
          </g>
        </g>
      </g>
    </g>
  </g>
</svg>